<?xml version="1.0" encoding="utf-8"?>
<!-- Generator: Adobe Illustrator 22.0.1, SVG Export Plug-In . SVG Version: 6.00 Build 0)  -->
<svg version="1.1" id="レイヤー_1" xmlns="http://www.w3.org/2000/svg" xmlns:xlink="http://www.w3.org/1999/xlink" x="0px"
	 y="0px" viewBox="0 0 24 24" style="enable-background:new 0 0 24 24;" xml:space="preserve">
<style type="text/css">
	.st0{display:none;}
	.st1{display:inline;fill:#F1F1F2;}
	.st2{fill:none;}
	.st3{display:inline;}
	.st4{fill:#5A5A5A;}
	.st5{opacity:0.3;enable-background:new    ;}
</style>
<g id="Header_x2F_BG" class="st0">
	<rect x="-182" y="-226" class="st1" width="520" height="520"/>
</g>
<g id="Bounding_Boxes">
	<g id="ui_x5F_spec_x5F_header_copy_3">
	</g>
	<path class="st2" d="M0,0h24v24H0V0z"/>
</g>
<g id="Rounded" class="st0">
	<g id="ui_x5F_spec_x5F_header_copy_5" class="st3">
	</g>
	<path class="st3" d="M12,2C6.5,2,2,6.5,2,12s4.5,10,10,10s10-4.5,10-10S17.5,2,12,2z M9.3,16.3l-3.6-3.6c-0.4-0.4-0.4-1,0-1.4l0,0
		c0.4-0.4,1-0.4,1.4,0l2.9,2.9l6.9-6.9c0.4-0.4,1-0.4,1.4,0l0,0c0.4,0.4,0.4,1,0,1.4l-7.6,7.6C10.3,16.7,9.7,16.7,9.3,16.3z"/>
</g>
<g id="Sharp" class="st0">
	<g id="ui_x5F_spec_x5F_header_copy_4" class="st3">
	</g>
	<path class="st3" d="M12,2C6.5,2,2,6.5,2,12s4.5,10,10,10s10-4.5,10-10S17.5,2,12,2z M10,17l-5-5l1.4-1.4l3.6,3.6l7.6-7.6L19,8
		L10,17z"/>
</g>
<g id="Outline">
	<g id="ui_x5F_spec_x5F_header">
	</g>
	<g>
		<path class="st4" d="M12,2C6.5,2,2,6.5,2,12s4.5,10,10,10s10-4.5,10-10S17.5,2,12,2z M12,20c-4.4,0-8-3.6-8-8s3.6-8,8-8s8,3.6,8,8
			S16.4,20,12,20z"/>
		<polygon class="st4" points="16.6,7.6 10,14.2 7.4,11.6 6,13 10,17 18,9 		"/>
	</g>
</g>
<g id="Duotone" class="st0">
	<g id="ui_x5F_spec_x5F_header_copy_2" class="st3">
	</g>
	<g class="st3">
		<path class="st5" d="M12,4c-4.4,0-8,3.6-8,8s3.6,8,8,8s8-3.6,8-8S16.4,4,12,4z M10,17l-4-4l1.4-1.4l2.6,2.6l6.6-6.6L18,9L10,17z"
			/>
		<path d="M12,2C6.5,2,2,6.5,2,12s4.5,10,10,10s10-4.5,10-10S17.5,2,12,2z M12,20c-4.4,0-8-3.6-8-8s3.6-8,8-8s8,3.6,8,8
			S16.4,20,12,20z"/>
		<polygon points="16.6,7.6 10,14.2 7.4,11.6 6,13 10,17 18,9 		"/>
	</g>
</g>
<g id="Fill" class="st0">
	<g id="ui_x5F_spec_x5F_header_copy" class="st3">
	</g>
	<path class="st3" d="M12,2C6.5,2,2,6.5,2,12s4.5,10,10,10s10-4.5,10-10S17.5,2,12,2z M10,17l-5-5l1.4-1.4l3.6,3.6l7.6-7.6L19,8
		L10,17z"/>
</g>
<g id="nyt_x5F_exporter_x5F_info" class="st0">
</g>
</svg>
