<?xml version="1.0" encoding="utf-8"?>
<!-- Generator: Adobe Illustrator 22.0.1, SVG Export Plug-In . SVG Version: 6.00 Build 0)  -->
<svg version="1.1" id="レイヤー_1" xmlns="http://www.w3.org/2000/svg" xmlns:xlink="http://www.w3.org/1999/xlink" x="0px"
	 y="0px" viewBox="0 0 480 119.6" style="enable-background:new 0 0 480 119.6;" xml:space="preserve">
<style type="text/css">
	.st0{fill:#DDA800;}
	.st1{opacity:0.4;fill:#562A03;}
	.st2{fill:#2B1A0B;}
	.st3{clip-path:url(#SVGID_2_);fill:url(#SVGID_3_);}
</style>
<g>
	<g>
		<path class="st0" d="M308.3,70.5c-0.9,0.1-0.9,0-1.7,0.1c-0.9,0.1-0.8,0.2-1.7,0.3c-0.9,0.1-0.9,0-1.7,0.1
			c-0.9,0.1-0.9,0.1-1.7,0.1c-0.6,0-1.1-0.2-1.6-0.5c-0.5-0.2-1-0.5-1.3-0.9c-0.3-0.4-0.5-1-0.5-1.6l0,0c0-0.6,0-1.2,0.3-1.6
			c0.2-0.5,0.7-0.9,1.1-1.2c0.4-0.3,1-0.6,1.6-0.6c0.9-0.1,0.9-0.1,1.7-0.1c0.9-0.1,0.9,0.2,1.7,0.1c0.9-0.1,0.9-0.1,1.7-0.1
			c0.9-0.1,0.9-0.1,1.7-0.1c0.6,0,1.1,0.1,1.5,0.4c0.5,0.2,1,0.5,1.4,0.9c0.3,0.4,0.4,1,0.4,1.6l-0.1,0c0,0.6,0,1.1-0.2,1.6
			c-0.2,0.5-0.7,0.9-1.1,1.2C309.4,70.4,308.9,70.5,308.3,70.5z"/>
	</g>
	<g>
		<path class="st0" d="M337.1,72.1c-0.9-0.1-0.9,0-1.7-0.1c-0.9-0.1-0.8-0.1-1.7-0.2c-0.9-0.1-0.9,0-1.7,0c-0.9-0.1-0.8-0.1-1.7-0.2
			c-0.6-0.1-1.1-0.3-1.6-0.6c-0.5-0.3-0.7-0.8-1-1.3c-0.2-0.5-0.3-1-0.3-1.6l-0.1,0c0.1-0.6,0.3-1.1,0.6-1.5c0.3-0.5,0.8-0.8,1.3-1
			c0.5-0.2,1-0.3,1.6-0.2c0.9,0.1,0.9-0.1,1.7,0c0.9,0.1,0.8,0.1,1.7,0.2c0.9,0.1,0.9,0,1.7,0.1c0.9,0.1,0.8,0.2,1.7,0.3
			c0.6,0.1,1.1,0.1,1.6,0.4c0.5,0.3,0.8,0.8,1.1,1.3c0.2,0.5,0.3,1.1,0.2,1.6l0.1,0c-0.1,0.6-0.3,1.1-0.6,1.5
			c-0.3,0.5-0.7,0.9-1.2,1.1C338.3,72.3,337.7,72.2,337.1,72.1z"/>
	</g>
	<g>
		<path class="st0" d="M450.9,74.1c-0.8-0.1-0.8-0.1-1.6-0.1c-0.8-0.1-0.8-0.1-1.6-0.2c-0.8-0.1-0.8-0.1-1.6-0.1
			c-0.8-0.1-0.8,0-1.6,0c-0.5,0-1-0.2-1.4-0.5c-0.4-0.3-0.8-0.7-1.1-1.1c-0.2-0.4-0.3-1-0.2-1.5l0.1,0c0-0.5,0.1-1,0.4-1.4
			c0.3-0.4,0.7-0.7,1.1-1c0.4-0.2,0.9-0.4,1.5-0.4c0.8,0.1,0.8,0.1,1.6,0.1c0.8,0.1,0.8,0.1,1.6,0.1c0.8,0.1,0.8,0.2,1.6,0.2
			c0.8,0.1,0.8,0,1.6,0.1c0.5,0,1,0.2,1.4,0.4c0.4,0.3,0.7,0.7,1,1.1c0.2,0.4,0.3,0.9,0.2,1.5l0,0c0,0.5,0,1.1-0.3,1.5
			c-0.3,0.4-0.7,0.8-1.2,1C451.9,74,451.4,74.2,450.9,74.1z"/>
	</g>
	<g>
		<path class="st0" d="M210.5,35.6c-0.9,0.1-0.8,0.9-1.7,0.9c-0.9,0.1-0.9-0.7-1.8-0.7c-0.9,0.1-0.8,0.4-1.7,0.5
			c-0.9,0.1-0.9-0.5-1.7-0.4c-0.9,0.1-0.8,0.5-1.7,0.6c-0.9,0.1-0.8,0.5-1.7,0.6c-0.9,0.1-0.9-0.6-1.7-0.5c-0.9,0.1-0.8,0.4-1.7,0.4
			c-0.9,0.1-0.9-0.4-1.7-0.3c-0.9,0.1-0.8,0.2-1.7,0.2c-0.9,0.1-0.8,0.4-1.7,0.5c-0.9,0.1-0.9-0.4-1.7-0.4c-0.9,0.1-0.8,0.5-1.7,0.5
			c-0.9,0.1-0.9,0.1-1.7,0.2c-0.9,0.1-0.9-0.7-1.8-0.6c-0.9,0.1-0.8,0.3-1.7,0.3c-0.9,0.1-0.8,0.8-1.7,0.8c-0.9,0.1-0.9-0.9-1.8-0.9
			c-0.9,0.1-0.8,0.8-1.7,0.9c-0.9,0.1-0.8,0.4-1.7,0.5c-0.9,0.1-0.9,0-1.7,0c-0.9,0.1-0.9-0.8-1.8-0.7c-0.9,0.1-0.8,0.4-1.7,0.5
			c-0.9,0.1-0.8,0.2-1.7,0.3c-0.9,0.1-0.9-0.6-1.7-0.5c-0.9,0.1-0.8,0.4-1.7,0.4c-0.9,0.1-0.9,0-1.7,0c-0.9,0.1-0.9,0-1.7,0.1
			c-0.9,0.1-0.8,0.8-1.7,0.8c-0.9,0.1-0.9,0.1-1.7,0.2s-0.9-0.3-1.7-0.3c-0.6,0-1-0.8-1.5-1c-0.6-0.2-1.2,0.1-1.7-0.3
			c-0.4-0.4-0.5-1-0.8-1.5c-0.2-0.5-0.9-0.9-0.9-1.5l-0.2,0c0-0.6,0.3-1.3,0.5-1.8c0.2-0.6,0.8-0.9,1.2-1.3c0.4-0.4,0.8-0.7,1.3-1
			c0.5-0.2,1-0.8,1.6-0.8c0.9-0.1,0.9,0,1.7-0.1c0.9-0.1,0.8-0.4,1.7-0.4c0.9-0.1,0.9,0.3,1.7,0.3c0.9-0.1,0.9,0.5,1.7,0.4
			c0.9-0.1,0.8-0.5,1.7-0.6c0.9-0.1,0.9,0.1,1.7,0c0.9-0.1,0.8-0.6,1.7-0.7c0.9-0.1,0.9,0.1,1.7,0.1c0.9-0.1,0.9,0.1,1.7,0
			c0.9-0.1,0.9,0.5,1.7,0.4c0.9-0.1,0.9-0.1,1.7-0.1c0.9-0.1,0.8-0.3,1.7-0.3c0.9-0.1,0.9,0.1,1.7,0c0.9-0.1,0.9,0.2,1.7,0.1
			c0.9-0.1,0.9,0.2,1.7,0.1c0.9-0.1,0.8-0.9,1.7-1c0.9-0.1,0.9,0.1,1.7,0c0.9-0.1,0.8-0.2,1.7-0.2c0.9-0.1,0.9,0.7,1.8,0.7
			c0.9-0.1,0.8-0.9,1.7-1c0.9-0.1,0.9,0,1.7-0.1c0.9-0.1,0.9,0.2,1.7,0.1c0.9-0.1,0.8-0.3,1.7-0.4c0.9-0.1,0.9,0.2,1.7,0.1
			c0.9-0.1,0.8-0.5,1.7-0.5c0.9-0.1,0.9-0.1,1.7-0.1c0.9-0.1,0.9,1,1.8,0.9c0.9-0.1,0.9-0.1,1.7-0.2c0.9-0.1,0.8-0.2,1.7-0.3
			c0.9-0.1,0.9,0.3,1.7,0.2s0.8-1,1.7-1.1c0.6,0,1.2,0.5,1.8,0.6c0.6,0.2,0.9,0.8,1.3,1.1c0.4,0.4,1.3,0.5,1.5,1
			c0.2,0.5,0.2,1.2,0.3,1.8l0.2,0c0,0.6-0.5,1.2-0.7,1.7c-0.2,0.6,0.1,1.5-0.3,1.9c-0.4,0.4-1.1,0.8-1.6,1
			C211.8,36.1,211.1,35.6,210.5,35.6z"/>
	</g>
	<g>
		<path class="st0" d="M191.1,35.4c0,0.8,0.6,0.9,0.5,1.7c0,0.8-0.3,0.8-0.4,1.7c0,0.8,0.3,0.9,0.3,1.7c0,0.8-1,0.8-1,1.6
			c0,0.8,0.3,0.9,0.2,1.7c0,0.8,0.1,0.8,0.1,1.7c0,0.8,0,0.8,0,1.7c0,0.8,0.3,0.9,0.3,1.7c0,0.8,0.1,0.9,0.1,1.7
			c0,0.8-0.2,0.8-0.3,1.7c0,0.8-0.4,0.8-0.5,1.7c0,0.8,0,0.8,0,1.7c0,0.8,0.2,0.9,0.2,1.7c0,0.8,0.7,0.9,0.6,1.7
			c0,0.8-0.3,0.8-0.3,1.7c0,0.8,0.2,0.9,0.2,1.7c0,0.8-0.7,0.8-0.7,1.7c0,0.8-0.3,0.8-0.3,1.7c0,0.8,0.2,0.9,0.2,1.7
			c0,0.8,0,0.8,0,1.7c0,0.8-0.1,0.8-0.1,1.7c0,0.8,0.2,0.9,0.2,1.7c0,0.8-0.4,0.8-0.5,1.7c0,0.8,0.6,0.9,0.6,1.7
			c0,0.8-0.2,0.8-0.2,1.7c0,0.8,0.3,0.9,0.3,1.7c0,0.8-0.2,0.8-0.3,1.7c0,0.8-0.1,0.8-0.1,1.7c0,0.8-1.1,0.8-1.2,1.6
			c0,0.8,1.2,0.9,1.2,1.7c0,0.8-0.9,0.8-0.9,1.7c0,0.8,0,0.8-0.1,1.7c0,0.8,0.6,0.9,0.6,1.7c0,0.8-0.9,0.8-1,1.7
			c0,0.8,0.8,0.9,0.7,1.7c0,0.8,0.3,0.9,0.3,1.7c0,0.8-0.3,0.8-0.3,1.7c0,0.6-0.8,1-1.1,1.6c-0.3,0.5,0,1.5-0.5,1.9
			c-0.4,0.4-1.3,0.1-1.9,0.3c-0.5,0.2-1,0.4-1.6,0.4l0,0c-0.6,0-1-0.4-1.5-0.7c-0.5-0.3-1.1-0.3-1.5-0.7c-0.4-0.4-0.5-0.9-0.7-1.5
			c-0.2-0.5-0.1-1-0.1-1.6c0-0.8-1-0.9-0.9-1.7c0-0.8,0.5-0.8,0.6-1.7c0-0.8-0.3-0.9-0.3-1.7c0-0.8,0.2-0.8,0.3-1.7
			c0-0.8,0.6-0.8,0.6-1.7c0-0.8-0.1-0.9-0.1-1.7c0-0.8,0.6-0.8,0.6-1.7c0-0.8-1.2-0.9-1.1-1.7c0-0.8-0.1-0.8,0-1.7
			c0-0.8,0.3-0.8,0.3-1.7c0-0.8-0.1-0.9-0.1-1.7c0-0.8,0.1-0.8,0.2-1.7c0-0.8-0.1-0.8,0-1.7c0-0.8,0.9-0.8,0.9-1.7
			c0-0.8-0.6-0.9-0.5-1.7c0-0.8-0.2-0.9-0.1-1.7c0-0.8,0.9-0.8,0.9-1.6c0-0.8,0.1-0.8,0.1-1.7c0-0.8,0.2-0.8,0.2-1.7
			c0-0.8-0.8-0.9-0.8-1.7c0-0.8,0.4-0.8,0.4-1.7c0-0.8-0.7-0.9-0.7-1.7c0-0.8,0.8-0.8,0.8-1.7c0-0.8,0.6-0.8,0.7-1.7
			c0-0.8-0.8-0.9-0.8-1.7c0-0.8,0.8-0.8,0.8-1.7c0-0.8,0.1-0.8,0.2-1.7c0-0.8-1.1-0.9-1-1.7c0-0.8,0.9-0.8,0.9-1.7
			c0-0.8-0.6-0.9-0.5-1.7c0-0.8-0.1-0.8,0-1.7c0-0.8,0.3-0.8,0.3-1.7c0-0.8,0.4-0.8,0.5-1.7c0-0.8,0-0.8,0.1-1.7
			c0-0.8,0.3-0.8,0.3-1.7c0-0.8-0.5-0.9-0.4-1.7c0-0.8-0.4-0.9-0.4-1.7c0-0.6,1.1-0.9,1.3-1.4c0.3-0.5,0.3-1,0.7-1.4
			c0.4-0.4,0.6-1.4,1.1-1.6c0.5-0.2,1.3,0.3,1.9,0.3l0-0.6c0.6,0,1.2,0.6,1.7,0.8c0.5,0.3,1.3,0.4,1.7,0.8c0.4,0.4,0.9,1,1.1,1.6
			C191.9,34,191.1,34.8,191.1,35.4z"/>
	</g>
	<g>
		<path class="st0" d="M476,54.3c0,0.9-0.8,0.8-0.9,1.7c0,0.9,0.7,0.9,0.6,1.8c0,0.9-0.7,0.8-0.8,1.7c0,0.9,0.1,0.9,0.1,1.7
			c0,0.9,0.3,0.9,0.3,1.8c0,0.9-0.5,0.8-0.5,1.7c0,0.9,0.6,0.9,0.6,1.8c0,0.9-0.2,0.9-0.3,1.7c0,0.9-0.4,0.9-0.4,1.7
			c0,0.9-0.1,0.9-0.1,1.7c0,0.9-0.1,0.9-0.2,1.7c0,0.9,0.7,0.9,0.7,1.8c0,0.9,0,0.9-0.1,1.7c0,0.9-0.1,0.9-0.2,1.7
			c0,0.9-0.6,0.8-0.7,1.7c0,0.9,0.3,0.9,0.2,1.8c0,0.9-0.4,0.8-0.5,1.7c0,0.9,0,0.9,0,1.7c0,0.9,0.5,0.9,0.5,1.8
			c0,0.9-0.1,0.9-0.1,1.7c0,0.9,0.1,0.9,0.1,1.7c0,0.9-0.7,0.8-0.8,1.7c0,0.9,0.5,0.9,0.5,1.8c0,0.6-0.1,1.3-0.4,1.8
			c-0.3,0.5-1.2,0.6-1.6,1c-0.4,0.4-0.5,1.4-1.1,1.6c-0.5,0.2-1.3,0.3-1.9,0.2l0,0.1c-0.6,0-1-1-1.5-1.2c-0.5-0.3-1-0.5-1.4-0.9
			c-0.4-0.4-1-0.7-1.3-1.3c-0.2-0.5-0.1-1.2-0.1-1.8c0-0.9-0.2-0.9-0.2-1.7c0-0.9,0.7-0.8,0.8-1.7c0-0.9-0.2-0.9-0.1-1.7
			c0-0.9,0-0.9,0-1.7c0-0.9,0-0.9,0-1.7c0-0.9-0.2-0.9-0.2-1.7c0-0.9-0.1-0.9,0-1.7c0-0.9,0.2-0.9,0.2-1.7c0-0.9,0.3-0.9,0.4-1.7
			c0-0.9,0-0.9,0-1.7c0-0.9-0.1-0.9-0.1-1.7c0-0.9-0.4-0.9-0.4-1.8c0-0.9,0.2-0.9,0.3-1.7c0-0.9-0.1-0.9-0.1-1.7
			c0-0.9,0.5-0.8,0.5-1.7c0-0.9,0.2-0.9,0.3-1.7c0-0.9-0.1-0.9-0.1-1.7c0-0.9,0-0.9,0.1-1.7c0-0.9,0.1-0.9,0.1-1.7
			c0-0.9-0.1-0.9-0.1-1.7c0-0.9,0.3-0.9,0.4-1.7c0-0.9-0.4-0.9-0.4-1.8s0.2-0.9,0.2-1.7c0-0.6,0-1.4,0.2-1.9
			c0.3-0.5,0.8-1.1,1.2-1.5c0.4-0.4,1.1-0.7,1.6-0.9c0.5-0.2,1.2,0.4,1.8,0.5l0-0.9c0.6,0,1.1,0.7,1.6,1c0.5,0.3,1,0.6,1.4,1
			c0.4,0.4,1.1,0.7,1.3,1.3C475.8,53,476,53.7,476,54.3z"/>
	</g>
	<g>
		<path class="st0" d="M242.4,90.4c-0.5-0.7-0.1-0.9-0.6-1.6c-0.5-0.7-0.3-0.8-0.8-1.5c-0.5-0.7-0.8-0.5-1.3-1.2
			c-0.5-0.7-0.4-0.8-0.9-1.5c-0.5-0.7-0.2-0.9-0.7-1.6c-0.5-0.7-0.8-0.5-1.2-1.2c-0.5-0.7-1-0.4-1.5-1.1c-0.5-0.7,0-1-0.5-1.7
			c-0.5-0.7-0.5-0.7-1-1.4c-0.5-0.7-0.5-0.7-1-1.4c-0.5-0.7-0.9-0.5-1.3-1.2c-0.5-0.7,0-1.1-0.5-1.8c-0.5-0.7-0.9-0.4-1.4-1.1
			c-0.5-0.7-0.2-0.9-0.6-1.6c-0.5-0.7-0.7-0.6-1.2-1.3c-0.5-0.7-0.3-0.8-0.8-1.5c-0.5-0.7-1.3-0.5-1-1.3c0.3-0.8,0.7-0.3,1.6-0.4
			c0.8-0.1,0.8-0.1,1.7-0.3c0.8-0.1,0.9,0.5,1.8,0.3c0.9-0.1,0.8-0.3,1.7-0.5c0.9-0.1,0.8-0.3,1.7-0.3c0.6,0,1.1,0,1.7-0.1
			c0.6-0.1,1.1-0.4,1.6-0.6c0.5-0.2,0.7-0.9,1.1-1.2c0.4-0.3,1-0.5,1.3-0.9c0.3-0.4,1-0.7,1.3-1.2c0.2-0.5,0.7-1,0.8-1.6
			c0.1-0.5-0.4-1.2-0.4-1.8l-0.1,0c0-0.6,0.2-1.1,0.1-1.7c-0.1-0.6,0.3-1.2,0.1-1.8c-0.2-0.5-1.2-0.8-1.4-1.3
			c-0.2-0.5-0.5-0.9-0.8-1.4c-0.3-0.5-0.1-1.3-0.5-1.7c-0.4-0.4-1.1-0.5-1.5-0.9c-0.4-0.4-0.5-1.2-1-1.5c-0.5-0.3-1-0.6-1.5-0.8
			c-0.5-0.2-1.1-0.4-1.6-0.6c-0.5-0.2-1.2-0.1-1.7-0.1c-0.5-0.1-1.1,0.3-1.7,0.3c-0.9,0-0.9-0.1-1.8-0.1c-0.9,0-0.9-0.2-1.8-0.2
			c-0.9,0-0.9-0.5-1.8-0.5c-0.9,0-0.9,0.1-1.8,0.1c-0.9,0-0.9,0.5-1.8,0.5s-0.9-0.3-1.8-0.3c-0.8,0-0.8,0.4-1.5,0.4
			s-0.8-0.8-1.5-0.8c-0.4,0-0.8,0.8-1.3,1.1c-0.4,0.2-1.2,0-1.6,0.4c-0.4,0.4-0.6,0.9-0.9,1.3c-0.3,0.5-0.2,1.1-0.2,1.6
			c0,0.9-0.4,0.9-0.4,1.7c0,0.9,0.7,0.8,0.7,1.7c0,0.9-0.1,0.9-0.1,1.7c0,0.9-0.3,0.9-0.3,1.7c0,0.9,0,0.9,0,1.7
			c0,0.9-0.1,0.9,0,1.7c0,0.9,0.8,0.8,0.8,1.7c0,0.9,0,0.9,0.1,1.7c0,0.9,0,0.9,0,1.7c0,0.9-0.6,0.9-0.5,1.7c0,0.9,0.3,0.8,0.4,1.7
			c0,0.9-0.4,0.9-0.3,1.7c0,0.9,0.1,0.9,0.1,1.7c0,0.9,0.6,0.8,0.6,1.7c0,0.9,0,0.9,0,1.7c0,0.9,0.2,0.9,0.2,1.7
			c0,0.9-0.7,0.9-0.6,1.7c0,0.9,0.6,0.8,0.6,1.7c0,0.9,0.1,0.9,0.1,1.7c0,0.9-0.7,0.9-0.6,1.7c0,0.9,0.8,0.8,0.8,1.7
			c0,0.9,0,0.9,0,1.7c0,0.9,0.1,0.9,0.2,1.7c0,0.9-0.8,0.9-0.8,1.7c0,0.5,0.3,1.1,0.5,1.5c0.2,0.4,0.9,0.5,1.3,0.8
			c0.4,0.2,0.8,0.6,1.3,0.6c0.2,0,0.2-0.3,0.3-0.3c0.5,0,1.2,0.5,1.6,0.2c0.4-0.2,0.8-0.9,1-1.3c0.2-0.4,0.3-1,0.3-1.5
			c0-0.8,0-0.8,0-1.7c0-0.8-0.2-0.8-0.2-1.7c0-0.8-0.1-0.8-0.1-1.7s0.1-0.8,0.1-1.7c0-0.8,0.3-0.8,0.3-1.7c0-0.8-0.1-0.8-0.1-1.7
			c0-0.8-0.2-0.8-0.2-1.7c0-0.8-0.5-0.8-0.5-1.7c0-0.8,0.2-0.8,0.2-1.7c0-0.8-0.2-0.8-0.2-1.7s-0.3-1.4,0.5-1.7
			c0.8-0.3,0.5,0.7,1.1,1.4c0.6,0.6,0.7,0.5,1.4,1.1c0.6,0.6,0.6,0.6,1.3,1.2c0.6,0.6,0.6,0.6,1.2,1.3c0.6,0.6,0.7,0.5,1.4,1.1
			c0.6,0.6,0.4,0.8,1.1,1.4c0.6,0.6,0.9,0.3,1.6,0.9c0.6,0.6,0.5,0.7,1.2,1.3c0.6,0.6,0.8,0.4,1.4,1.1c0.6,0.6,0.5,0.7,1.2,1.3
			c0.6,0.6,0.6,0.6,1.2,1.3c0.6,0.6,0.1,1.1,0.7,1.8c0.6,0.6,1.2,0,1.8,0.6c0.6,0.6,0.2,1,0.9,1.6c0.6,0.6,0.6,0.6,1.3,1.2
			c0.6,0.6,1,0.3,1.6,0.9c0.4,0.5,0.6,1.3,1,1.5c0.6,0.2,1.1-0.4,1.6-0.7c0.5-0.3,0.5-0.6,0.6-1.2C242.5,91.3,242.7,91,242.4,90.4z"
			/>
	</g>
	<path class="st1" d="M20.8,109.4c-0.6-1.2,2.7-3,6.2-4.2c3.6-1.1,10.6-2,16.7-2.7c5.7-0.6,13.2-0.9,20.2-0.9c7.1,0,12.3,1,18.1,1.5
		c6.1,0.6,12.6,1,16.2,2c3.6,1.1,7.5,1.9,5.6,3.7c-2.2,2.2-5.6,1.7-9.2,2.8c-3.6,1.1-5.7,2.8-11.8,3.5c-5.7,0.6-11.8,0.7-18.8,0.8
		c-7.1,0-12.3-0.3-18-0.8c-6.1-0.6-11.4-1.1-15-2.2C27.5,111.9,23.4,114.1,20.8,109.4z"/>
	<path class="st2" d="M3.7,71.1c-0.1-0.6-1.3-1-1.4-1.7c-0.1-0.6,0.8-1.4,0.7-2c-0.1-0.6-0.8-1.2-0.9-1.8c0-0.6,0.1-1.3,0.1-1.9
		c0-0.6,0.6-1.3,0.6-1.9c0-0.6-0.3-1.2-0.3-1.9C2.5,59.3,2,58.6,2,58c0-0.6,0.3-1.2,0.4-1.9c0.1-0.6,0.6-1.2,0.7-1.8
		c0.1-0.6-0.6-1.3-0.5-2c0.1-0.6,0.8-1.1,0.9-1.8c0.1-0.6-0.2-1.3-0.1-1.9c0.1-0.6-0.4-1.4-0.2-2c0.1-0.6,0.2-1.3,0.3-1.9
		c0.2-0.6,0.9-1.1,1.1-1.7c0.2-0.6,0.6-1.1,0.8-1.7c0.2-0.6-0.1-1.4,0.1-2c0.2-0.6,1-1,1.3-1.6c0.3-0.6,1.2-0.8,1.5-1.4
		c0.3-0.6-0.2-1.6,0.2-2.2c0.3-0.6,1-0.9,1.3-1.5c0.4-0.5,0.4-1.3,0.8-1.8c0.4-0.5,1.5-0.5,1.9-1c0.4-0.5,0.6-1.2,1-1.7
		c0.4-0.5,0.7-1.1,1.2-1.6c0.4-0.5,0.8-1,1.3-1.5c0.5-0.5,0.4-1.5,0.9-1.9c0.5-0.5,1.8,0,2.3-0.5c0.5-0.5,0.5-1.3,1-1.8
		c0.5-0.4,0.7-1.2,1.2-1.7c0.5-0.4,1.3-0.6,1.7-1c0.5-0.4,1.3-0.5,1.8-0.9c0.5-0.4,0.6-1.4,1.1-1.8c0.5-0.4,1.6,0,2.1-0.4
		c0.5-0.4,0.4-1.6,0.9-2c0.5-0.4,1-0.8,1.6-1.2c0.5-0.3,1.5,0.1,2.1-0.2c0.6-0.3,1-0.7,1.6-1c0.6-0.3,1.4,0,2-0.3
		c0.6-0.3,1.1-0.6,1.7-0.8c0.6-0.3,0.8-1.5,1.4-1.7c0.6-0.2,1.4,0.2,2-0.1c0.6-0.2,1-1,1.6-1.2c0.6-0.2,1.3-0.3,1.9-0.4
		c0.6-0.2,1.2-0.4,1.8-0.6c0.6-0.2,1.4,0.3,2,0.2c0.6-0.2,1.2-0.4,1.8-0.6C51,5,51.7,5.2,52.3,5.1c0.6-0.1,1-1.6,1.6-1.8
		c0.7-0.1,1.4-0.2,2-0.3c0.7-0.1,1.4,0.2,2,0.1c0.7,0,1.3,1.2,1.9,1.2c0.7,0,1.3-0.2,1.9-0.2c0.6,0.1,1.3,0.1,1.9,0.3
		c0.6,0.1,1.4-0.4,2.1-0.2c0.6,0.2,1.3,0.2,2,0.4c0.6,0.2,1.2,0.5,1.9,0.7c0.6,0.2,0.9,1.3,1.5,1.6c0.6,0.2,1.6-0.6,2.2-0.4
		c0.6,0.2,0.8,1.4,1.5,1.7c0.6,0.2,1.3,0.3,1.9,0.5c0.6,0.2,1.2,0.6,1.8,0.8c0.6,0.2,1.3,0.2,2,0.4c0.6,0.2,1.3,0.1,2,0.3
		c0.6,0.2,1.1,0.7,1.8,0.9c0.6,0.2,1.2,0.4,1.9,0.5c0.6,0.2,1.4-0.3,2-0.1c0.6,0.2,0.9,1.5,1.6,1.7c0.6,0.2,1.6-0.9,2.2-0.7
		c0.6,0.2,1.3,0.3,1.9,0.5c0.6,0.2,0.9,1.4,1.5,1.6c0.6,0.2,1.5-0.4,2.1-0.2c0.6,0.2,1.1,0.7,1.7,1c0.6,0.2,1.1,0.8,1.6,1.1
		c0.6,0.3,1.5-0.1,2,0.2c0.6,0.3,1,0.8,1.6,1.2c0.5,0.3,1.4,0.3,1.9,0.7c0.5,0.4,0.5,1.5,0.9,1.9c0.5,0.4,1.4,0.4,1.9,0.9
		c0.5,0.5,0.2,1.6,0.6,2.1c0.4,0.5,1.3,0.6,1.8,1.1c0.4,0.5,0.5,1.3,0.9,1.8c0.4,0.5,0.7,1.1,1.1,1.6c0.4,0.5,1.5,0.6,1.9,1.1
		c0.4,0.6-0.1,1.6,0.3,2.2c0.3,0.6,0.5,1.2,0.9,1.8c0.3,0.6,1.2,0.9,1.5,1.4c0.3,0.6,1.2,0.9,1.4,1.5c0.3,0.6-0.3,1.6,0,2.2
		c0.2,0.6,1.1,1,1.3,1.6c0.2,0.6,0.2,1.3,0.4,2c0.2,0.6,0.2,1.3,0.3,2c0.2,0.6-0.3,1.4-0.1,2.1c0.2,0.6,0.8,1.1,1,1.8
		c0.1,0.6,0.4,1.3,0.4,1.9c0.1,0.6-0.4,1.3-0.3,2c0.1,0.7,0,1.3,0,1.9c0,0.7,1.2,1.3,1.2,1.9c0,0.7-1.3,1.2-1.3,1.9
		c0,0.6-0.1,1.3-0.2,1.9c-0.1,0.6-0.2,1.3-0.3,1.9c-0.1,0.6,0.3,1.4,0.2,2c-0.1,0.6,0,1.3-0.1,2c-0.2,0.6-1.2,1-1.3,1.7
		c-0.2,0.6,0,1.3-0.2,2c-0.2,0.6-0.6,1.2-0.8,1.8c-0.2,0.6-0.5,1.2-0.7,1.8c-0.2,0.6,0.9,1.7,0.6,2.3c-0.2,0.6-1.9,0.7-2.1,1.3
		c-0.2,0.6,1,1.8,0.7,2.3c-0.3,0.6-1.7,0.6-2,1.2c-0.3,0.6,0.3,1.6,0,2.1c-0.3,0.6-1.1,0.8-1.4,1.4c-0.3,0.6-0.4,1.2-0.8,1.7
		c-0.3,0.5,0.1,1.6-0.2,2.1c-0.4,0.5-2,0.2-2.4,0.7c-0.4,0.5,0.1,1.7-0.3,2.2c-0.4,0.5-1,0.8-1.4,1.3c-0.4,0.5-1,0.8-1.4,1.3
		c-0.4,0.5-0.3,1.5-0.7,2c-0.4,0.5-0.9,0.9-1.4,1.4c-0.5,0.4-1.6,0.2-2,0.6c-0.5,0.4-0.9,0.8-1.4,1.3c-0.5,0.4-0.4,1.5-0.9,1.9
		c-0.5,0.4-1.9-0.3-2.4,0c-0.5,0.4-0.6,1.3-1.1,1.6c-0.5,0.3-1.1,0.6-1.7,0.9c-0.5,0.3-0.9,1-1.4,1.3c-0.6,0.3-1.2,0.5-1.8,0.7
		c-0.6,0.3-1.5-0.4-2.1-0.1c-0.6,0.2-0.6,2-1.2,2.2c-0.6,0.2-1.6-0.7-2.2-0.5c-0.6,0.2-1.3,0.1-1.9,0.3c-0.6,0.2-0.9,1.5-1.5,1.7
		c-0.6,0.2-1.4-0.5-2.1-0.4c-0.6,0.2-1,1.3-1.6,1.5c-0.6,0.1-1.4-0.3-2-0.2c-0.6,0.1-1.2,0.5-1.8,0.6c-0.6,0.1-1.2,0.3-1.9,0.4
		c-0.7,0.1-1.4-0.1-2,0c-0.7,0.1-1.3,0.5-1.9,0.6c-0.7,0.1-1.4-0.8-2.1-0.7c-0.7,0.1-1.3,0-2,0c-0.7,0-1.3,0.8-1.9,0.8
		c-0.7,0-1.3,0.2-2,0.1c-0.7,0-1.3-0.4-2-0.5c-0.7-0.1-1.4,0.2-2,0.1c-0.7-0.1-1.3-0.1-2-0.3c-0.6-0.1-1.2-0.6-1.9-0.7
		c-0.6-0.1-1.4,0.1-2,0c-0.6-0.1-1-1.4-1.6-1.6c-0.6-0.2-1.3,0-2-0.2c-0.6-0.2-1.6,0.8-2.2,0.6c-0.6-0.2-1-1.1-1.6-1.2
		c-0.6-0.2-1.3,0-1.9-0.2c-0.6-0.2-1-0.9-1.6-1.1c-0.6-0.2-1.2-0.4-1.8-0.6c-0.6-0.2-1.4,0.2-2,0c-0.6-0.2-1.2-0.3-1.8-0.5
		c-0.6-0.2-0.8-1.4-1.4-1.6c-0.6-0.2-1.6,0.6-2.2,0.4c-0.6-0.3-0.8-1.3-1.3-1.6c-0.6-0.3-1-0.7-1.6-1c-0.5-0.3-1.5,0.1-2.1-0.2
		c-0.5-0.3-0.8-1.1-1.3-1.4c-0.5-0.4-1.3-0.4-1.8-0.8c-0.5-0.4-0.5-1.3-1-1.7c-0.5-0.4-0.8-0.9-1.3-1.4c-0.4-0.5-0.6-1.2-1.1-1.7
		c-0.5-0.4-1.2-0.6-1.7-1.1c-0.5-0.4-0.5-1.4-1-1.8c-0.5-0.4-1.2-0.6-1.7-1c-0.5-0.4-1.3-0.5-1.8-1c-0.5-0.4-1-0.8-1.5-1.3
		c-0.5-0.4-0.8-1-1.3-1.5c-0.5-0.4-0.6-1.2-1.1-1.7c-0.5-0.5-1.1-0.7-1.6-1.2c-0.5-0.5-1.7-0.2-2.1-0.7c-0.4-0.5,0-1.7-0.4-2.2
		c-0.4-0.5-0.6-1.1-1-1.6c-0.4-0.5-1.8-0.4-2.1-1c-0.3-0.6-0.4-1.3-0.7-1.9c-0.3-0.6-0.5-1.3-0.7-1.9C2.8,72.7,3.8,71.7,3.7,71.1z"
		/>
	<g>
		<defs>
			<path id="SVGID_1_" d="M2.9,71.3c-2-10-0.5-22.8,3-31.8C9.4,30.4,18.3,22,26.1,15.6c7.4-6,17.7-9.7,27.9-11.7s19.2,4,28.3,6.7
				c9.6,2.9,19.6,4,26.3,11c6.7,7,11.5,15.9,13.5,25.9c2,10-0.8,19.4-4.3,28.4c-3.5,9.1-9,16.5-16.8,22.8c-7.4,6-16,8.2-26.1,10.2
				s-18.2,0.9-27.3-1.8c-9.6-2.9-18.1-5.3-24.8-12.3C16.1,87.8,4.9,81.3,2.9,71.3z"/>
		</defs>
		<clipPath id="SVGID_2_">
			<use xlink:href="#SVGID_1_"  style="overflow:visible;"/>
		</clipPath>
		
			<radialGradient id="SVGID_3_" cx="-650.863" cy="133.2685" r="40.3726" gradientTransform="matrix(1.7311 0 0 1.5964 1161.531 -180.7579)" gradientUnits="userSpaceOnUse">
			<stop  offset="0" style="stop-color:#FFFFFF;stop-opacity:0.1"/>
			<stop  offset="1" style="stop-color:#FFFFFF;stop-opacity:0"/>
		</radialGradient>
		<ellipse class="st3" cx="34.8" cy="32" rx="69.9" ry="64.4"/>
	</g>
	<g>
		<path class="st0" d="M274,45.8c-0.6,0-1,0.5-1.3,0.9c-0.4,0.4-0.4,0.8-0.4,1.4c0,0.6-0.7,1.1-0.8,1.7c-0.1,0.6-0.1,1.1-0.2,1.7
			c-0.1,0.6-0.2,1.1-0.3,1.6c-0.2,0.6-0.2,1.2-0.4,1.7c-0.3,0.5-0.6,1-0.9,1.4c-0.4,0.5-1.1,0.5-1.5,0.8c-0.5,0.4-0.8,0.8-1.3,1
			c-0.5,0.2-1-0.1-1.6-0.1c-0.6,0-1.3,0.6-1.8,0.3c-0.5-0.2-1-0.6-1.5-1c-0.4-0.3-1-0.7-1.4-1.1c-0.3-0.4-0.4-1.1-0.7-1.6
			c-0.3-0.5-0.4-1.1-0.6-1.6c-0.2-0.5-0.2-1.1-0.4-1.7c-0.1-0.5-0.3-1.1-0.4-1.6c-0.1-0.5-0.7-1.1-0.7-1.7c0-0.5,0.8-1.1,0.8-1.7
			c0-0.7-0.3-1.6-0.6-1.9c-0.4-0.4-1.3-0.5-1.9-0.5c-0.6,0-1.4,0.2-1.8,0.6c-0.4,0.4,0,1.2,0,1.8c0,0.8-0.1,0.8-0.2,1.7
			c0,0.8-0.5,0.8-0.6,1.6c0,0.8,0.6,0.9,0.6,1.7c0,0.8-0.5,0.8-0.5,1.7c0,0.8,0.2,0.8,0.2,1.7c0,0.8-0.2,0.8-0.3,1.7
			c0,0.8,0.3,0.9,0.3,1.7c0,0.8,0.1,0.8,0,1.7c0,0.8-0.1,0.8-0.1,1.7c0,0.8-0.7,0.8-0.7,1.6c0,0.8,0.3,0.8,0.2,1.7
			c0,0.8-0.1,0.8-0.1,1.7c0,0.8,0,0.8,0,1.7c0,0.8,0.1,0.8,0.1,1.7c0,0.8-0.5,0.8-0.5,1.7c0,0.8-0.2,0.8-0.3,1.7
			c0,0.8,0.4,0.9,0.4,1.7c0,0.8-0.2,0.8-0.2,1.7c0,0.8-0.4,0.8-0.5,1.7c0,0.8,0.3,0.9,0.3,1.7c0,0.8,0.6,0.9,0.6,1.7
			c0,0.8-0.7,0.8-0.7,1.7c0,0.6,0,1.1,0,1.7c0,0.6,0.2,1.1,0.3,1.6c0.1,0.6,0.7,1,0.9,1.5c0.2,0.5-0.2,1.3,0,1.8
			c0.3,0.5,1,0.7,1.3,1.1c0.3,0.4,0.4,1.1,0.8,1.5c0.4,0.4,1,0.5,1.5,0.8c0.4,0.3,0.8,0.8,1.3,1.1c0.5,0.3,1,0.5,1.5,0.7
			c0.5,0.2,1.1,0.2,1.6,0.4c0.5,0.2,1,0.3,1.6,0.4c0.6,0.1,1.1,0.7,1.6,0.7c0.6,0,1.1-0.4,1.7-0.5c0.5-0.1,1-0.4,1.6-0.6
			c0.5-0.2,1.1-0.4,1.5-0.7c0.5-0.3,0.9-0.7,1.3-1c0.4-0.3,0.5-1,0.9-1.4c0.4-0.4,1-0.6,1.3-1c0.3-0.4,1-0.6,1.3-1.1
			c0.3-0.5,0.8-0.9,1-1.4c0.2-0.5-0.1-1.3,0-1.8c0.2-0.5,0.2-1.1,0.2-1.6c0.1-0.6,0.4-1.1,0.4-1.6c0-0.8,0.5-0.8,0.5-1.7
			c0-0.8-1-0.8-1-1.7c0-0.8,0-0.8,0-1.7c0-0.8,0.7-0.8,0.7-1.7c0-0.8-0.5-0.8-0.5-1.7c0-0.8,0.7-0.8,0.7-1.7c0-0.8,0-0.8,0-1.7
			c0-0.8,0-0.8,0-1.7c0-0.8-0.2-0.8-0.2-1.7c0-0.8-0.5-0.8-0.5-1.7c0-0.8,0.1-0.8,0.1-1.7c0-0.8,0.2-0.8,0.2-1.7
			c0-0.8,0.6-0.8,0.6-1.7c0-0.8-0.2-0.8-0.2-1.7c0-0.8-0.6-0.8-0.6-1.7c0-0.8,0.4-0.8,0.4-1.7c0-0.8-0.4-0.8-0.4-1.7
			c0-0.8,0.8-0.8,0.8-1.7c0-0.8-0.7-0.8-0.7-1.7c0-0.8,0.7-0.8,0.7-1.7c0-0.8-0.1-0.8-0.1-1.7c0-0.6-0.6-1-1-1.4
			C275,46.3,274.6,45.8,274,45.8z"/>
	</g>
	<g>
		<path class="st0" d="M292.3,44.3c-0.5,0-1,0.3-1.4,0.6c-0.4,0.2-0.6,0.7-0.9,1.1c-0.2,0.4-0.6,0.8-0.6,1.3c0,0.9,0,0.9,0,1.7
			c0,0.9,0.4,0.9,0.4,1.7c0,0.9-0.8,0.9-0.8,1.7c0,0.9,0.7,0.9,0.7,1.7c0,0.9,0,0.9,0,1.7c0,0.9-0.6,0.9-0.6,1.7
			c0,0.9,0.5,0.9,0.5,1.7c0,0.9-0.2,0.9-0.2,1.7c0,0.9-0.2,0.9-0.2,1.7c0,0.9,0.4,0.9,0.4,1.7c0,0.9-0.1,0.9-0.1,1.7
			c0,0.9,0.3,0.9,0.3,1.7c0,0.9-0.5,0.9-0.5,1.7c0,0.9,0.4,0.9,0.4,1.7c0,0.9-0.6,0.9-0.6,1.7c0,0.9,0.4,0.9,0.4,1.7
			c0,0.9-0.3,0.9-0.3,1.7c0,0.9-0.1,0.9-0.1,1.7c0,0.9,0.6,0.9,0.6,1.7c0,0.9-0.6,0.9-0.6,1.7c0,0.9-0.1,0.9-0.1,1.7
			c0,0.9,0.4,0.9,0.4,1.7c0,0.9,0.4,0.9,0.4,1.7c0,0.9-0.5,0.9-0.5,1.7c0,0.9,0.4,0.9,0.4,1.7s-0.2,0.9-0.2,1.7c0,0.6,0,1.1,0.2,1.6
			c0.2,0.5,0.4,1.2,0.8,1.6c0.4,0.3,1.2,0.3,1.7,0.3c0.5,0.1,1.1,0,1.6-0.2c0.5-0.1,1.2-0.2,1.6-0.6c0.4-0.4,0.8-0.9,1-1.5
			c0.3-0.8-0.4-1-0.1-1.9c0.3-0.8,1-0.6,1.3-1.4c0.3-0.8,0.3-0.8,0.5-1.6c0.3-0.8,0.3-0.8,0.6-1.6c0.3-0.8,0-0.9,0.3-1.7
			c0.3-0.8,0.1-0.9,0.4-1.7c0.3-0.8,0.8-0.6,1.1-1.4c0.3-0.8,0.1-0.9,0.3-1.7c0.3-0.8,0.4-0.8,0.7-1.6c0.3-0.8,0.3-0.8,0.6-1.6
			c0.3-0.8-0.5-1.1-0.2-1.9c0.3-0.8,1.2-0.5,1.4-1.3c0.3-0.8-0.6-1.1-0.3-1.9c0.3-0.8,1-0.5,1.3-1.4c0.3-0.8-0.2-1,0-1.8
			c0.3-0.8,0.6-0.7,0.9-1.5c0.3-0.8,0.2-0.8,0.4-1.7c0.3-0.8-0.2-1,0-1.8c0.3-0.8,1.2-0.5,1.5-1.3c0.3-0.8-0.3-1-0.1-1.8
			c0.3-0.8,0.4-0.8,0.7-1.6c0.3-0.8,0.4-0.8,0.7-1.6c0.3-0.8-0.2-1,0.1-1.8c0.3-0.8,0.3-0.8,0.6-1.6c0.3-0.8,0.8-0.6,1.1-1.4
			c0.3-0.8,0.3-0.8,0.6-1.6c0.3-0.8-0.2-1,0-1.8c0.3-0.8,1.1-0.5,1.4-1.4c0.1-0.6-0.3-1.3-0.5-1.8c-0.2-0.5-0.5-1.1-1-1.4
			c-0.4-0.3-1.1-0.2-1.7-0.2c-0.8,0-0.8-0.1-1.7-0.1c-0.8,0-0.8-0.6-1.7-0.6c-0.8,0-0.8,1-1.7,1c-0.8,0-0.8-0.7-1.7-0.7
			c-0.8,0-0.8-0.1-1.7-0.1c-0.8,0-0.8,0.7-1.7,0.7c-0.8,0-0.8-0.5-1.7-0.5c-0.8,0-0.8,0.6-1.7,0.6c-0.8,0-0.9-0.3-1.7-0.4
			C293.2,44.6,293.2,44.3,292.3,44.3z"/>
	</g>
	<g>
		<path class="st0" d="M323.7,45.6c-0.5,0-1.2-0.4-1.6-0.2c-0.4,0.2-0.2,1.2-0.4,1.7c-0.2,0.4-0.4,0.7-0.4,1.2
			c0,0.9-0.2,0.9-0.2,1.7c0,0.9-0.1,0.9-0.1,1.7c0,0.9-0.5,0.9-0.5,1.7c0,0.9,0.4,0.9,0.3,1.7c0,0.9,0,0.9,0,1.7
			c0,0.9-0.2,0.9-0.2,1.7c0,0.9,0,0.9,0,1.7c0,0.9-0.2,0.9-0.2,1.7c0,0.9-0.1,0.9-0.1,1.7c0,0.9,0.2,0.9,0.2,1.7
			c0,0.9-0.3,0.9-0.4,1.7c0,0.9,0.6,0.9,0.6,1.7c0,0.9-0.6,0.8-0.6,1.7c0,0.9,0.4,0.9,0.4,1.7c0,0.9-0.1,0.9-0.1,1.7
			c0,0.9-0.4,0.9-0.4,1.7c0,0.9,0.2,0.9,0.2,1.7c0,0.9,0.3,0.9,0.3,1.7c0,0.9-0.2,0.9-0.2,1.7c0,0.9-0.3,0.9-0.3,1.7
			c0,0.9,0.4,0.9,0.4,1.7c0,0.9-0.4,0.9-0.4,1.7c0,0.9,0.2,0.9,0.2,1.7c0,0.9,0.4,0.9,0.4,1.7c0,0.9,0.1,0.9,0,1.7
			c0,0.9-0.4,0.9-0.4,1.7c0,0.6,0,1.2,0.2,1.6c0.2,0.5,0.8,0.7,1.3,1c0.4,0.3,0.8,0.8,1.3,0.9c0.5,0.1,1.2,0.5,1.8,0.3
			c0.5-0.1,0.8-0.9,1.2-1.3c0.4-0.3,0.8-0.7,1-1.3c0.3-0.8,0.1-0.9,0.4-1.7c0.3-0.8,0.8-0.6,1.1-1.4c0.3-0.8,0.1-0.9,0.4-1.7
			c0.3-0.8,0.2-0.8,0.5-1.6c0.3-0.8,0.3-0.8,0.6-1.6c0.3-0.8-0.1-1,0.2-1.8c0.3-0.8,1-0.5,1.3-1.3c0.3-0.8,0-0.9,0.2-1.7
			c0.3-0.8,0-0.9,0.3-1.7c0.3-0.8,0.5-0.7,0.8-1.5c0.3-0.8,0.5-0.7,0.8-1.5c0.3-0.8-0.1-1,0.2-1.8c0.3-0.8,0.9-0.6,1.2-1.4
			c0.3-0.8-0.3-1,0-1.8c0.3-0.8,0.2-0.8,0.5-1.6c0.3-0.8,0.8-0.6,1.1-1.4c0.3-0.8,0.2-0.8,0.5-1.6c0.3-0.8,0.7-0.7,1-1.5
			c0.3-0.8,0.3-0.8,0.6-1.6c0.3-0.8-0.3-1,0-1.8c0.3-0.8,0.7-0.7,1-1.5c0.3-0.8-0.1-0.9,0.2-1.7c0.3-0.8,0.4-0.8,0.7-1.6
			c0.3-0.8,0.3-0.8,0.6-1.6c0.3-0.8,0.7-0.7,1-1.5c0.3-0.8,0.2-0.8,0.5-1.6c0.3-0.8,0.5-0.7,0.8-1.5c0.3-0.8-0.5-1.1-0.2-1.9
			c0.1-0.6,0.1-0.9-0.1-1.4c-0.2-0.5-0.3-1-0.8-1.3c-0.4-0.3-0.9-1.2-1.5-1.2c-0.8,0-0.8,0.2-1.7,0.2c-0.8,0-0.8,0-1.7,0
			c-0.8,0-0.9,0.4-1.7,0.4c-0.8,0-0.8,0.1-1.7,0.1c-0.8,0-0.8-0.1-1.7-0.1c-0.8,0-0.8-0.6-1.7-0.6c-0.8,0-0.9,0.7-1.7,0.7
			c-0.8,0-0.8-0.6-1.7-0.6c-0.8,0-0.9,0.1-1.7,0.1C324.6,45.4,324.6,45.6,323.7,45.6z"/>
	</g>
	<g>
		<path class="st0" d="M355.1,94.9c-0.5,0-0.9-0.3-1.3-0.5c-0.4-0.2-0.8-0.5-1.1-0.9c-0.3-0.4-0.4-0.8-0.4-1.4
			c0-0.6-0.5-0.6-0.5-1.3c0-0.6,0.1-0.6,0.1-1.3c0-0.6,0.3-0.6,0.3-1.3c0-0.6-0.3-0.6-0.3-1.3c0-0.6,0.2-0.6,0.2-1.3
			c0-0.6-0.3-0.6-0.3-1.3c0-0.6,0.3-0.6,0.3-1.3c0-0.6,0-0.6,0-1.3c0-0.6-0.7-0.6-0.8-1.3c0-0.6,0.7-0.7,0.6-1.3
			c0-0.6,0.1-0.6,0.1-1.3c0-0.6-0.3-0.6-0.3-1.3c0-0.6,0.4-0.7,0.3-1.3c0-0.6-1-0.6-1-1.2c0-0.6,0.3-0.6,0.2-1.3
			c0-0.6-0.1-0.6-0.1-1.3c0-0.6,0.1-0.6,0.1-1.3c0-0.6,0-0.6,0-1.3c0-0.6-0.3-0.6-0.3-1.3c0-0.6,0.4-0.7,0.4-1.3
			c0-0.6,0.4-0.7,0.4-1.3c0-0.6-0.6-0.6-0.6-1.3c0-0.6,0.7-0.7,0.6-1.3c0-0.6-1-0.6-1-1.2c0-0.6,0-0.6-0.1-1.3
			c0-0.6,0.3-0.7,0.3-1.3c0-0.6,0.3-0.6,0.3-1.3c0-0.6-0.3-0.6-0.3-1.3c0-0.6-0.2-0.6-0.2-1.3c0-0.6,0.4-0.7,0.4-1.3
			c0-0.6-0.6-0.6-0.6-1.3c0-0.6,0-0.6-0.1-1.3c0-0.6,0.6-0.7,0.6-1.3c0-0.6-0.3-0.6-0.4-1.3c0-0.6,0-0.6,0-1.3
			c0-0.4,0.4-0.8,0.4-1.2c0.1-0.4,0.3-0.7,0.4-1.1c0.2-0.4,0.3-0.7,0.6-1c0.3-0.3,0.6-0.4,1-0.6c0.4-0.2,0.6-1,1-1
			c0.4,0,0.7,0.7,1.1,0.9c0.4,0.1,0.4,0.5,0.7,0.8c0.3,0.3,1.3,0,1.5,0.4c0.2,0.3-0.6,1-0.4,1.5c0.1,0.4,0.9,0.6,0.9,1.1
			c0,0.3-0.1,0.7,0,1.3c0.1,0.4,0,0.8,0.1,1.3c0.1,0.4,0.2,0.8,0.3,1.2c0.1,0.4,0.2,0.8,0.3,1.2c0.1,0.4,0.4,0.7,0.5,1.2
			c0.1,0.4,0.2,0.8,0.3,1.2c0.1,0.4,0.6,0.7,0.8,1.1c0.1,0.4-0.3,0.9-0.1,1.4c0.1,0.4,0.1,0.8,0.2,1.3c0.1,0.4,0.3,0.8,0.5,1.2
			c0.1,0.4,0.4,0.7,0.6,1.1c0.1,0.4,0.6,0.7,0.7,1.1c0.1,0.4,0.3,0.8,0.5,1.2c0.1,0.4,0.1,0.9,0.2,1.3c0.1,0.4,0.4,0.7,0.6,1.1
			c0.1,0.4,0,0.9,0.2,1.3c0.1,0.4,0.1,0.8,0.3,1.2c0.1,0.4-0.2,1-0.1,1.4c0.1,0.4,1.1,0.5,1.3,0.9c0.1,0.4,0.3,0.8,0.4,1.2
			c0.1,0.4-0.1,0.9,0,1.3c0.1,0.4,0.5,0.7,0.7,1.1c0.1,0.4,0.2,0.8,0.3,1.2c0.2,0.4,0.7,0.6,0.9,1c0.2,0.4,0.1,0.9,0.3,1.3
			c0.2,0.4,0.4,0.7,0.6,1.1c0.2,0.4,0,0.9,0.1,1.3c0.2,0.4,0.4,0.7,0.6,1.1c0.2,0.4-0.1,1,0.1,1.4c0.2,0.4,1.1,0.4,1.3,0.8
			c0.2,0.4,0.1,0.9,0.3,1.3c0.2,0.4,0.4,0.8,0.6,1.1c0.2,0.4,0.3,0.8,0.6,1.1c0.3,0.4,0.5,0.8,0.8,1c0.4,0.4,1,0.9,1.3,0.9
			c0.4,0,1-0.9,1.3-0.9c0.4,0.1,0.8,0.6,1.1,0.8c0.4,0.2,0.5,0.7,0.7,1.1c0.2,0.4,0,0.7,0.1,1.2c0.1,0.4,0.6,0.8,0.5,1.2
			c-0.1,0.4-0.8,0.4-1.1,0.7c-0.3,0.3-0.4,0.7-0.8,0.9c-0.3,0.2-0.6,0.6-1,0.7c-0.4,0.1-0.8,0.5-1.2,0.6c-0.4,0.1-0.9,0-1.3,0
			c-0.6,0-0.7-0.6-1.3-0.6c-0.6,0-0.7,0-1.3,0c-0.7,0-0.6,0.5-1.3,0.5c-0.6,0-0.6,0.2-1.3,0.2c-0.6,0-0.7-0.8-1.3-0.7
			c-0.7,0-0.6,0.5-1.3,0.5c-0.6,0-0.7-0.3-1.3-0.3c-0.7,0-0.6,0.3-1.3,0.3c-0.7,0-0.6,0.3-1.3,0.3c-0.6,0-0.7-0.4-1.3-0.4
			c-0.7,0-0.6,0.5-1.3,0.5c-0.7,0-0.7-0.6-1.3-0.5C355.8,94.5,355.8,94.9,355.1,94.9z"/>
	</g>
	<g>
		<path class="st0" d="M386.4,41.6c-0.5,0-1.2,0-1.6,0.3c-0.4,0.2-0.4,1.1-0.7,1.5c-0.3,0.4-0.6,0.8-0.6,1.3c0,0.6,0.5,0.7,0.5,1.3
			c0,0.6-0.6,0.6-0.6,1.3c0,0.6-0.4,0.6-0.5,1.3c0,0.6,0.6,0.7,0.6,1.3c0,0.6-0.6,0.6-0.6,1.3c0,0.6-0.1,0.6-0.1,1.3
			c0,0.6,0.8,0.7,0.7,1.3c0,0.6-0.6,0.6-0.7,1.3c0,0.6,0.4,0.7,0.4,1.3c0,0.6,0,0.6,0,1.3c0,0.6-0.2,0.6-0.2,1.3
			c0,0.6-0.3,0.6-0.3,1.3c0,0.6,0,0.6,0,1.3c0,0.6-0.2,0.6-0.2,1.3c0,0.6,0.3,0.6,0.3,1.3c0,0.6,0.3,0.6,0.3,1.3
			c0,0.6-0.7,0.6-0.7,1.3c0,0.6,0.2,0.6,0.1,1.3c0,0.6,0.5,0.7,0.5,1.3c0,0.6-0.4,0.6-0.4,1.3c0,0.6,0.4,0.7,0.4,1.3
			c0,0.6-0.3,0.6-0.3,1.3c0,0.6,0.2,0.6,0.2,1.3c0,0.6,0,0.6,0,1.3c0,0.6,0.1,0.6,0.1,1.3c0,0.6-0.4,0.6-0.4,1.3
			c0,0.6,0.2,0.6,0.2,1.3c0,0.6-0.2,0.6-0.2,1.3c0,0.6-0.4,0.6-0.5,1.3c0,0.6,0.3,0.7,0.3,1.3c0,0.6-0.3,0.6-0.3,1.3
			c0,0.6-0.1,0.6-0.1,1.3c0,0.6,0.1,0.6,0.1,1.3c0,0.6-0.1,0.6-0.2,1.3c0,0.6,0.3,0.7,0.3,1.3c0,0.4,0.3,0.7,0.5,1.1
			c0.1,0.4,0.4,0.5,0.7,0.8c0.3,0.3,0,1.1,0.4,1.3c0.3,0.2,0.8,0.6,1.2,0.7c0.4,0.1,0.9-0.3,1.3-0.4c0.4-0.1,1,0.2,1.4,0
			c0.3-0.2,0.8-0.5,1.1-0.9c0.2-0.3,0.5-0.8,0.6-1.2c0.2-0.6-0.1-0.7,0.1-1.3c0.2-0.6,0.5-0.5,0.7-1.1c0.2-0.6,0.2-0.6,0.4-1.2
			c0.2-0.6,0.3-0.6,0.5-1.2c0.2-0.6,0.2-0.6,0.4-1.2c0.2-0.6-0.3-0.8,0-1.4c0.2-0.6,0.7-0.4,1-1c0.2-0.6-0.5-0.9-0.2-1.5
			c0.2-0.6,1.1-0.3,1.3-0.9c0.2-0.6,0-0.7,0.2-1.3c0.2-0.6-0.3-0.8,0-1.4c0.2-0.6,0.2-0.6,0.4-1.2c0.2-0.6,0.7-0.4,1-1
			c0.2-0.6,0.3-0.6,0.5-1.2c0.2-0.6-0.2-0.8,0.1-1.4c0.2-0.6,0-0.7,0.2-1.3c0.2-0.6,0.4-0.5,0.6-1.1c0.2-0.6,0.9-0.3,1.2-0.9
			c0.2-0.6-0.4-0.8-0.2-1.4c0.2-0.6,0.2-0.6,0.5-1.2c0.2-0.6,0.7-0.4,1-1c0.2-0.6-0.5-0.9-0.3-1.5c0.2-0.6,1-0.3,1.3-0.9
			c0.2-0.6-0.3-0.8-0.1-1.4c0.2-0.6,0.1-0.7,0.3-1.3c0.2-0.6,0.6-0.4,0.9-1.1c0.2-0.6,0.1-0.6,0.4-1.2c0.2-0.6-0.1-0.7,0.2-1.3
			c0.2-0.6,0.1-0.7,0.3-1.3c0.2-0.6,0.7-0.4,0.9-1c0.2-0.6-0.1-0.7,0.1-1.3c0.2-0.6,0.1-0.7,0.3-1.3c0.2-0.6,0.9-0.4,1.1-1
			c0.2-0.6,0-0.7,0.3-1.3c0.2-0.6,0.2-0.6,0.4-1.2c0.2-0.6-0.1-0.7,0.2-1.3c0.2-0.6,0.4-0.5,0.6-1.2c0.1-0.4,0.7-0.8,0.6-1.2
			c-0.1-0.4-0.2-1-0.4-1.4c-0.3-0.3-1.1-0.1-1.5-0.3c-0.4-0.2-0.7-0.5-1.1-0.5c-0.6,0-0.7,0.1-1.3,0.1c-0.6,0-0.6-0.3-1.3-0.3
			c-0.7,0-0.7,0.1-1.3,0.1c-0.6,0-0.7,0.2-1.3,0.2c-0.6,0-0.6-0.5-1.3-0.5c-0.7,0-0.7,0.6-1.3,0.6c-0.6,0-0.6-0.7-1.3-0.7
			c-0.6,0-0.6-0.1-1.3-0.1c-0.7,0-0.7,0.3-1.3,0.3c-0.6,0-0.7,0.2-1.3,0.2c-0.7,0-0.6-0.7-1.3-0.7c-0.7,0-0.6,0.3-1.3,0.1
			C387.1,41.5,387,41.6,386.4,41.6z"/>
	</g>
	<g>
		<path class="st0" d="M384.7,93.2c-0.5,0-1.1-0.4-1.5-0.6c-0.4-0.3-0.3-0.9-0.6-1.4c-0.2-0.4-0.5-0.7-0.4-1.2
			c0-0.6-0.6-0.7-0.5-1.3c0-0.6,0.4-0.6,0.4-1.3c0-0.6-0.4-0.7-0.4-1.3c0-0.6,0.9-0.6,0.9-1.3c0-0.6-0.7-0.7-0.7-1.3
			c0-0.6,0.8-0.6,0.8-1.3c0-0.6-0.1-0.6-0.1-1.3c0-0.6-0.4-0.7-0.4-1.3c0-0.6,0.5-0.6,0.5-1.3c0-0.6-0.7-0.7-0.7-1.3
			c0-0.6,0.2-0.6,0.2-1.3c0-0.6,0.4-0.6,0.4-1.3c0-0.6,0.1-0.6,0.1-1.3c0-0.6,0.1-0.6,0.1-1.3c0-0.6-0.8-0.7-0.8-1.3
			c0-0.6,0-0.6,0-1.3c0-0.6,0.1-0.6,0.1-1.3c0-0.6,0.7-0.6,0.7-1.3c0-0.6-0.3-0.6-0.3-1.3c0-0.6,0.4-0.6,0.5-1.3c0-0.6,0-0.6,0-1.3
			c0-0.6-0.6-0.7-0.6-1.3c0-0.6,0.1-0.6,0.1-1.3c0-0.6-0.1-0.6-0.1-1.3c0-0.6,0.8-0.6,0.8-1.3c0-0.6-0.6-0.7-0.5-1.3
			c0-0.6-0.1-0.6,0-1.3c0-0.6,0.8-0.6,0.8-1.3c0-0.6-0.8-0.7-0.8-1.3c0-0.6,0.1-0.6,0.1-1.3c0-0.6-0.1-0.6-0.1-1.3
			c0-0.6,0.9-0.6,0.9-1.3c0-0.6-0.1-0.6-0.1-1.3c0-0.6-0.4-0.7-0.4-1.3c0-0.6,0.2-0.6,0.3-1.3c0-0.4-0.2-0.9,0-1.3
			c0.2-0.4,0.9-0.3,1.2-0.6c0.3-0.3,0.4-0.6,0.7-0.8c0.4-0.2,0.7-0.4,1.1-0.4c0.4-0.1,0.8-0.1,1.2,0c0.4,0.1,0.9,0,1.2,0.2
			c0.3,0.2,0.8,0.4,1,0.8c0.2,0.3,0.3,0.8,0.4,1.2c0.2,0.6-0.1,0.7,0.1,1.3c0.2,0.6,0.3,0.6,0.4,1.2c0.2,0.6,0.4,0.6,0.5,1.2
			c0.2,0.6,0.7,0.5,0.9,1.1c0.2,0.6,0,0.7,0.2,1.3c0.2,0.6,0.4,0.6,0.6,1.2c0.2,0.6-0.3,0.8-0.1,1.4c0.2,0.6,0,0.7,0.2,1.3
			c0.2,0.6,0.4,0.6,0.5,1.2c0.2,0.6,0.2,0.6,0.4,1.2c0.2,0.6,0.1,0.6,0.3,1.2c0.2,0.6,0.4,0.6,0.5,1.2c0.2,0.6-0.1,0.7,0.1,1.3
			c0.2,0.6,0.7,0.5,0.9,1.1c0.2,0.6,0.1,0.7,0.3,1.3c0.2,0.6,0.4,0.5,0.6,1.2c0.2,0.6,0.1,0.7,0.3,1.3c0.2,0.6,0.1,0.6,0.3,1.2
			c0.2,0.6-0.6,0.9-0.4,1.5c0.2,0.6,1.1,0.3,1.3,1c0.2,0.6-0.4,0.8-0.2,1.4c0.2,0.6,0.2,0.6,0.4,1.2c0.2,0.6,0.6,0.5,0.8,1.1
			c0.2,0.6-0.4,0.8-0.2,1.4c0.2,0.6,0.8,0.4,1,1.1c0.2,0.6,0.4,0.5,0.6,1.2c0.2,0.6,0,0.7,0.2,1.3c0.2,0.6-0.3,0.8-0.1,1.4
			c0.2,0.6,0.7,0.5,0.9,1.1c0.2,0.6-0.3,0.8-0.1,1.4c0.2,0.6,0.3,0.6,0.5,1.2c0.2,0.6,0.2,0.6,0.4,1.2c0.2,0.6,0,0.7,0.2,1.3
			c0.2,0.6,0.4,0.6,0.6,1.2c0.2,0.6,0.1,0.7,0.3,1.3c0.2,0.6,0.1,0.7,0.3,1.3s0.9,0.4,1.1,1c0.1,0.4-0.3,1-0.4,1.4
			c-0.1,0.4-0.1,1-0.4,1.3c-0.3,0.3-0.8,0.5-1.2,0.7c-0.4,0.2-0.8-0.1-1.3-0.1c-0.6,0-0.7,0.1-1.3,0.1c-0.6,0-0.6-0.4-1.3-0.4
			c-0.7,0-0.7,0.8-1.3,0.8c-0.6,0-0.7,0-1.3,0c-0.6,0-0.6-0.2-1.3-0.2c-0.7,0-0.7,0.1-1.3,0.1c-0.6,0-0.6-0.1-1.3-0.1
			c-0.7,0-0.7,0-1.3,0c-0.7,0-0.6-0.6-1.3-0.7c-0.6,0-0.7,0.4-1.3,0.4c-0.7,0-0.7,0.1-1.3,0.1c-0.7,0-0.7-0.7-1.3-0.7
			C385.3,92.7,385.4,93.2,384.7,93.2z"/>
	</g>
	<g>
		<path class="st0" d="M434.8,32.2c-0.1,0.6,0.3,0.7,0.1,1.3c-0.1,0.6-0.2,0.6-0.4,1.2c-0.1,0.6,0.4,0.7,0.3,1.4
			c-0.1,0.6-0.5,0.6-0.6,1.2c-0.1,0.6,0.4,0.7,0.3,1.4c-0.1,0.6-0.6,0.5-0.8,1.2c-0.1,0.6,0.6,0.8,0.5,1.4c-0.1,0.6-0.1,0.6-0.2,1.3
			c-0.1,0.6-1,0.5-1.1,1.1c-0.1,0.6,0.5,0.7,0.4,1.4c-0.1,0.6,0,0.7-0.1,1.3c-0.1,0.6-0.9,0.5-1,1.1c-0.1,0.6,0.6,0.8,0.5,1.4
			c-0.1,0.6-0.5,0.6-0.6,1.2c-0.1,0.6-0.2,0.6-0.3,1.2c-0.1,0.6-0.1,0.6-0.2,1.3c-0.1,0.6-0.3,0.6-0.4,1.2c-0.1,0.6,0.4,0.7,0.2,1.4
			c-0.1,0.6-0.3,0.6-0.4,1.2c-0.1,0.6-0.4,0.6-0.6,1.2c-0.1,0.6,0.1,0.7,0,1.3c-0.1,0.6,0.4,0.7,0.2,1.4c-0.1,0.6-0.1,0.6-0.2,1.3
			c-0.1,0.6-0.2,0.6-0.3,1.2c-0.1,0.6-0.5,0.6-0.6,1.2c-0.1,0.6,0.1,0.7,0,1.3c-0.1,0.6-0.8,0.5-0.9,1.1c-0.1,0.6,0.3,0.7,0.2,1.3
			c-0.1,0.6-0.1,0.6-0.3,1.3c-0.1,0.6-0.3,0.6-0.4,1.2c-0.1,0.6,0.3,0.7,0.2,1.3c-0.1,0.6-0.8,0.5-0.9,1.1c-0.1,0.6,0.2,0.7,0.1,1.3
			c-0.1,0.6-0.4,0.6-0.5,1.2c-0.1,0.6-0.1,0.6-0.3,1.3c-0.1,0.6,0,0.7-0.1,1.3c-0.1,0.6-0.1,0.6-0.2,1.3c-0.1,0.6,0.5,0.7,0.3,1.4
			c-0.1,0.6-0.7,0.5-0.8,1.2c-0.1,0.6,0.8,0.8,0.6,1.4c-0.1,0.6-0.6,0.6-0.7,1.2c-0.1,0.6,0,0.7-0.1,1.3c-0.1,0.6-0.2,0.6-0.3,1.3
			c-0.1,0.6-0.2,0.6-0.3,1.3c-0.1,0.6-0.3,0.6-0.4,1.2c-0.1,0.6,0.4,0.7,0.2,1.4c-0.1,0.6-0.2,0.6-0.3,1.3c-0.1,0.6-0.1,0.6-0.3,1.3
			c-0.1,0.4-1,0.8-0.9,1.2c0.1,0.4,0.9,0.6,1.1,0.9c0.2,0.3,0.4,0.7,0.7,1c0.3,0.2,0.8,0.2,1.2,0.3c0.4,0.1,0.7,0.9,1.1,0.9
			c0.6,0,0.6-0.8,1.3-0.8c0.6,0,0.6,0.1,1.3,0.1c0.6,0,0.6,0.1,1.3,0.1c0.6,0,0.6-0.4,1.3-0.4c0.6,0,0.6,0.5,1.3,0.5
			c0.6,0,0.6,0,1.3,0c0.6,0,0.6,0,1.3,0c0.6,0,0.6,0.4,1.3,0.4c0.6,0,0.6-0.2,1.3-0.2c0.6,0,0.6-0.4,1.3-0.4c0.6,0,0.6-0.2,1.3-0.2
			c0.6,0,0.6,0.8,1.3,0.8c0.6,0,0.6-0.1,1.3-0.1c0.6,0,0.6-0.1,1.3-0.1c0.6,0,0.6-0.3,1.3-0.3c0.6,0,0.6,0,1.3,0
			c0.6,0,0.6,0.7,1.3,0.7s0.6-0.4,1.3-0.4c0.4,0,1,0.3,1.4,0.2c0.4-0.1,0.4-1.2,0.7-1.4c0.3-0.2,0.6-0.4,0.8-0.7
			c0.2-0.3,0.1-0.6,0.2-1c0.1-0.4,0.5-0.7,0.4-1.1c-0.1-0.6,0.1-0.7,0-1.3c-0.1-0.6,0.1-0.7,0-1.3c-0.1-0.6-0.3-0.6-0.4-1.2
			c-0.1-0.6-0.8-0.5-0.9-1.1c-0.1-0.6,0.9-0.8,0.8-1.5c-0.1-0.6,0-0.6-0.1-1.3c-0.1-0.6-0.4-0.6-0.5-1.2c-0.1-0.6,0-0.7-0.1-1.3
			c-0.1-0.6-1-0.5-1.1-1.1c-0.1-0.6,0-0.7-0.1-1.3c-0.1-0.6,0.5-0.8,0.4-1.4c-0.1-0.6-0.9-0.5-1.1-1.1c-0.1-0.6,0.5-0.7,0.3-1.4
			c-0.1-0.6-0.5-0.6-0.6-1.2c-0.1-0.6,0.1-0.7,0-1.3c-0.1-0.6-0.6-0.5-0.7-1.2c-0.1-0.6-0.2-0.6-0.4-1.2c-0.1-0.6,0-0.7-0.1-1.3
			c-0.1-0.6,0.7-0.8,0.6-1.4c-0.1-0.6-0.5-0.6-0.6-1.2c-0.1-0.6-0.1-0.6-0.2-1.3c-0.1-0.6-0.2-0.6-0.3-1.2c-0.1-0.6-0.3-0.6-0.4-1.2
			c-0.1-0.6,0.5-0.7,0.3-1.4c-0.1-0.6,0.1-0.7,0-1.3c-0.1-0.6-0.7-0.5-0.8-1.2c-0.1-0.6,0-0.7-0.1-1.3c-0.1-0.6,0.4-0.7,0.3-1.4
			c-0.1-0.6-0.6-0.5-0.7-1.2c-0.1-0.6-0.9-0.5-1.1-1.1c-0.1-0.6,0.7-0.8,0.5-1.4c-0.1-0.6-0.1-0.6-0.2-1.3c-0.1-0.6-0.2-0.6-0.3-1.3
			c-0.1-0.6-0.7-0.5-0.8-1.2c-0.1-0.6,0.7-0.8,0.6-1.4c-0.1-0.6-0.8-0.5-0.9-1.1c-0.1-0.6,0.4-0.7,0.3-1.4c-0.1-0.6-0.5-0.6-0.6-1.2
			c-0.1-0.6,0.2-0.7,0-1.3c-0.1-0.6-0.2-0.6-0.3-1.3c-0.1-0.6-0.5-0.6-0.6-1.2c-0.1-0.6-0.2-0.6-0.3-1.3c-0.1-0.6,0.7-0.8,0.5-1.4
			c-0.1-0.6-0.4-0.6-0.6-1.2c-0.1-0.6-0.3-0.6-0.4-1.2c-0.1-0.6,0-0.7-0.1-1.3c-0.1-0.6-0.3-0.6-0.4-1.2s-0.7-0.5-0.8-1.1
			c-0.1-0.4,0.1-0.8-0.2-1.1c-0.3-0.3-0.3-1.1-0.7-1.3c-0.4-0.2-0.9-0.7-1.3-0.7c-0.4-0.1-0.9,0.8-1.4,0.8c-0.4,0.1-0.7,0.4-1.1,0.6
			c-0.4,0.2-0.9,0.2-1.1,0.5C435.8,31.5,435,31.7,434.8,32.2z"/>
	</g>
	<g>
		<path class="st0" d="M475.5,35.3c0,0.4,0,0.8-0.1,1.2c-0.1,0.4-0.3,0.8-0.5,1.1c-0.2,0.4-0.2,0.8-0.5,1.1
			c-0.3,0.3-0.6,0.6-0.9,0.8c-0.3,0.3-0.7,0.5-1,0.6c-0.4,0.2-0.8,0.3-1.2,0.4c-0.4,0.1-0.8,0.1-1.2,0.1c-0.4,0-0.8,0-1.2-0.1
			c-0.4-0.1-0.8-0.2-1.2-0.4c-0.4-0.2-0.7-0.4-1-0.6c-0.3-0.3-0.6-0.5-0.9-0.9c-0.3-0.3-0.5-0.7-0.7-1c-0.2-0.4-0.4-0.7-0.5-1.1
			c-0.1-0.4-0.2-0.8-0.2-1.2c0-0.4,0.2-0.8,0.3-1.2c0.1-0.4,0.1-0.9,0.2-1.2c0.2-0.4,0.4-0.7,0.7-1.1c0.3-0.3,0.6-0.6,0.9-0.8
			c0.3-0.3,0.7-0.5,1-0.7c0.4-0.2,0.8-0.3,1.2-0.4c0.4-0.1,0.8-0.1,1.2-0.1c0.4,0,0.9-0.1,1.2,0c0.4,0.1,0.7,0.4,1.1,0.6
			c0.4,0.2,0.8,0.3,1.1,0.5c0.3,0.3,0.5,0.6,0.8,1c0.3,0.3,0.6,0.6,0.8,0.9c0.2,0.4,0.3,0.8,0.4,1.2
			C475.6,34.5,475.5,34.9,475.5,35.3z"/>
	</g>
</g>
</svg>
